<svg width="70" height="60" viewBox="0 0 70 60" fill="none" xmlns="http://www.w3.org/2000/svg">
<path fill-rule="evenodd" clip-rule="evenodd" d="M45.0033 31.5324L44.8779 24.9072L37.1989 27.1175C35.8332 27.4214 34.4174 27.4214 33.0518 27.1175L25.7373 24.8844V31.578C25.9481 34.0332 32.9891 34.7795 35.1481 34.882C36.8571 34.9674 43.693 34.0674 44.6159 32.6546C44.8248 32.3086 44.9496 31.9183 44.9805 31.5153L45.0033 31.5324ZM1.44694 46.3778H8.40251C8.13598 46.3066 7.9002 46.1499 7.73141 45.9317C7.56262 45.7135 7.47017 45.4459 7.46826 45.1701V11.9588C7.46826 11.6289 7.59892 11.3125 7.83165 11.0787C8.06438 10.8449 8.38024 10.7128 8.71013 10.7113H60.9538C61.2842 10.7128 61.6006 10.8447 61.8343 11.0783C62.0679 11.312 62.1998 11.6284 62.2013 11.9588V45.1644C62.2001 45.4412 62.1071 45.7099 61.9371 45.9284C61.7671 46.1468 61.5295 46.3029 61.2614 46.3721H68.5474C70.4785 46.3721 70.4785 49.2887 68.5474 49.2887H1.44694C1.07666 49.2656 0.72914 49.1021 0.475127 48.8317C0.221114 48.5613 0.0797119 48.2043 0.0797119 47.8333C0.0797119 47.4622 0.221114 47.1052 0.475127 46.8348C0.72914 46.5644 1.07666 46.4009 1.44694 46.3778V46.3778ZM9.5988 12.6652H60.2474V44.8112H9.5988V12.6652ZM32.9549 46.9189H37.028C37.2134 46.9204 37.3907 46.9947 37.5218 47.1258C37.6529 47.2569 37.7272 47.4343 37.7287 47.6196V47.6196C37.7242 47.803 37.6486 47.9775 37.5179 48.1061C37.3871 48.2348 37.2114 48.3075 37.028 48.3089H32.9264C32.7411 48.3074 32.5637 48.2331 32.4326 48.102C32.3015 47.971 32.2272 47.7936 32.2258 47.6082V47.6082C32.2272 47.4229 32.3015 47.2455 32.4326 47.1144C32.5637 46.9833 32.7411 46.909 32.9264 46.9076L32.9549 46.9189ZM14.8454 39.8608C14.7009 39.8715 14.5557 39.8522 14.4189 39.8042C14.2822 39.7562 14.1568 39.6805 14.0506 39.5819C13.9445 39.4833 13.8598 39.3638 13.8019 39.2309C13.744 39.0981 13.7141 38.9547 13.7141 38.8098C13.7141 38.6649 13.744 38.5215 13.8019 38.3887C13.8598 38.2558 13.9445 38.1364 14.0506 38.0377C14.1568 37.9391 14.2822 37.8634 14.4189 37.8154C14.5557 37.7674 14.7009 37.7481 14.8454 37.7588H55.1546C55.42 37.7783 55.6682 37.8976 55.8493 38.0925C56.0304 38.2875 56.1311 38.5437 56.1311 38.8098C56.1311 39.0759 56.0304 39.3322 55.8493 39.5271C55.6682 39.7221 55.42 39.8413 55.1546 39.8608H14.8454ZM15.0277 33.7712C14.7623 33.7516 14.5141 33.6324 14.333 33.4374C14.1519 33.2425 14.0512 32.9862 14.0512 32.7201C14.0512 32.454 14.1519 32.1978 14.333 32.0028C14.5141 31.8079 14.7623 31.6887 15.0277 31.6691H23.151C23.151 31.766 23.151 31.8628 23.151 31.9539C23.2306 32.6102 23.4757 33.2355 23.8631 33.7712H15.0277ZM50.6999 31.6691H54.9723C55.2377 31.6887 55.4859 31.8079 55.667 32.0028C55.8481 32.1978 55.9488 32.454 55.9488 32.7201C55.9488 32.9862 55.8481 33.2425 55.667 33.4374C55.4859 33.6324 55.2377 33.7516 54.9723 33.7712H46.9458C47.0301 33.6264 47.1043 33.476 47.168 33.3211H47.994C48.7914 33.3203 49.5573 33.0098 50.1302 32.4552L50.1758 32.4097C50.4009 32.1921 50.5929 31.9425 50.7454 31.6691H50.6999ZM48.0851 21.5348V27.2314H48.2617C48.3206 27.2314 48.3772 27.2549 48.4188 27.2965C48.4605 27.3382 48.4839 27.3947 48.4839 27.4536V28.9974C48.4839 29.0563 48.4605 29.1128 48.4188 29.1545C48.3772 29.1962 48.3206 29.2196 48.2617 29.2196H48.0851V29.755C48.1972 29.7774 48.2982 29.8378 48.3709 29.926C48.4435 30.0143 48.4835 30.1249 48.4839 30.2393C48.4824 30.3687 48.4303 30.4925 48.3388 30.584C48.2472 30.6756 48.1235 30.7277 47.994 30.7292H47.111C46.9805 30.7292 46.8553 30.6777 46.7626 30.586C46.6698 30.4943 46.6169 30.3697 46.6154 30.2393V30.2393C46.6161 30.1241 46.6568 30.0128 46.7306 29.9245C46.8044 29.8361 46.9067 29.7762 47.0199 29.755V29.2196H46.8376C46.7786 29.2196 46.7221 29.1962 46.6805 29.1545C46.6388 29.1128 46.6154 29.0563 46.6154 28.9974V27.465C46.6154 27.4061 46.6388 27.3496 46.6805 27.3079C46.7221 27.2662 46.7786 27.2428 46.8376 27.2428H47.0199V21.8823L37.7002 24.7819C36.0393 25.1949 34.3025 25.1949 32.6416 24.7819L22.3877 21.7114L21.4535 21.4323C20.3141 20.9595 20.5876 19.8486 21.6642 19.5923L33.2682 16.123C34.4378 15.7527 35.6932 15.7527 36.8628 16.123L48.2845 19.541C49.5264 19.8429 49.7713 20.9937 48.3301 21.4665L48.0851 21.5405V21.5348Z" fill="white"/>
</svg>
